<?xml version="1.0" encoding="UTF-8"?>
<svg id="Layer_1" data-name="Layer 1" xmlns="http://www.w3.org/2000/svg" xmlns:xlink="http://www.w3.org/1999/xlink" version="1.1" viewBox="0 0 720 720">
  <defs>
    <style>
      .cls-1 {
        clip-path: url(#clippath);
      }

      .cls-2 {
        fill: none;
      }

      .cls-2, .cls-3 {
        stroke-width: 0px;
      }

      .cls-3 {
        fill: #000;
      }
    </style>
    <clipPath id="clippath">
      <rect class="cls-2" width="720" height="720"/>
    </clipPath>
  </defs>
  <g class="cls-1">
    <g>
      <path class="cls-3" d="M642.4,66.4l-100.6,100.5,11.3,11.3,100.6-100.5-11.3-11.3Z"/>
      <path class="cls-3" d="M49.8,169.8c12.9,12.9,29,20.8,45.8,23.6l97.9-97.9c-2.8-16.7-10.7-32.8-23.6-45.7l-16.2-16.2C120.5.5,66.7.5,33.6,33.6s-33.2,86.9,0,120l16.2,16.2ZM66.9,77.4c14.2,0,25.7,11.5,25.7,25.7s-11.5,25.7-25.7,25.7-25.7-11.5-25.7-25.7c0-14.1,11.5-25.7,25.7-25.7Z"/>
      <path class="cls-3" d="M194.4,117.2l-77.1,77.1c8.6-.8,17.2-2.8,25.3-6.2,7.5-3,16.2-1.1,21.9,4.7l42.2,42.2c4.4,4.4,11.4,4.4,15.8,0l12.4-12.4c4.4-4.4,4.4-11.4,0-15.8l-42.1-42.1c-5.8-5.8-7.7-14.4-4.7-22,3.5-8.3,5.6-16.8,6.3-25.5Z"/>
      <path class="cls-3" d="M166.9,541.9l-100.6,100.5,11.3,11.3,100.6-100.5-11.3-11.3Z"/>
      <path class="cls-3" d="M525.6,602.8l77.1-77.1c-8.6.8-17.2,2.8-25.3,6.2-7.5,3-16.2,1.1-21.9-4.7l-42.2-42.2c-4.4-4.4-11.4-4.4-15.8,0l-12.4,12.4c-4.4,4.4-4.4,11.4,0,15.8l42.1,42.1c5.8,5.8,7.7,14.4,4.7,22-3.5,8.3-5.5,16.8-6.3,25.5Z"/>
      <path class="cls-3" d="M670.2,550.2c-12.9-12.9-29-20.8-45.8-23.6l-97.9,97.9c2.8,16.7,10.7,32.8,23.6,45.7l16.2,16.2c33.2,33.1,87,33.1,120.1,0,33.2-33.1,33.2-86.9,0-120l-16.2-16.2ZM653.1,642.6c-14.2,0-25.7-11.5-25.7-25.7s11.5-25.7,25.7-25.7,25.7,11.5,25.7,25.7c.1,14.1-11.5,25.7-25.7,25.7Z"/>
      <path class="cls-3" d="M431,697.4l-182.5-182.5,129.5-129.8,102.5,102.8,7.1-7.1-102.5-102.8h0l129.5-129.8,182.8,182.8-84.4,84.4c6.8.2,13.5,1.1,20,2.7l87-87.1-194.1-194.1,32.3-32.4-43.1-43.1-32.3,32.4L289,0l-86.9,86.9c1.6,6.5,2.5,13.2,2.7,19.9l84.2-84.2,182.5,182.5-129.5,129.8-102.5-102.8-7.1,7.1,102.6,102.8h0l-129.5,129.8L22.6,289l84.4-84.4c-6.8-.2-13.5-1.1-20-2.7L0,289l194.2,194.2-32.3,32.4,43.1,43.1,32.3-32.4,193.7,193.7,86.9-86.9c-1.6-6.5-2.5-13.2-2.7-19.9l-84.2,84.2ZM515.1,175.6l28.9,28.9-25.3,25.3-28.9-28.9,25.3-25.3ZM478.6,212.2l28.9,28.9-25.6,25.7-28.9-28.9,25.6-25.7ZM445.9,245l28.9,28.9-27.6,27.6-28.9-28.9,27.6-27.6ZM411.3,279.7l28.9,28.9-27.6,27.6-28.9-28.9,27.6-27.6ZM376.6,314.4l28.9,28.9-27.5,27.6-28.9-28.9,27.5-27.6ZM342,349.1l28.9,28.9-27.5,27.6-28.9-28.9,27.5-27.6ZM307.4,383.8l28.9,28.9-27.6,27.6-28.9-28.9,27.6-27.6ZM272.8,418.5l28.9,28.9-27.6,27.6-28.9-28.9,27.6-27.6ZM204.9,544.5l-28.9-29,25.3-25.3,28.9,28.9-25.3,25.4ZM212.5,478.9l25.6-25.7,28.9,28.9-25.6,25.7-28.9-28.9Z"/>
    </g>
  </g>
</svg>