<?xml version="1.0" encoding="UTF-8"?>
<svg id="Layer_1" data-name="Layer 1" xmlns="http://www.w3.org/2000/svg" xmlns:xlink="http://www.w3.org/1999/xlink" version="1.1" viewBox="0 0 720 720">
  <defs>
    <style>
      .cls-1 {
        clip-path: url(#clippath);
      }

      .cls-2 {
        fill: none;
      }

      .cls-2, .cls-3 {
        stroke-width: 0px;
      }

      .cls-3 {
        fill: #000;
      }
    </style>
    <clipPath id="clippath">
      <rect class="cls-2" width="720" height="720"/>
    </clipPath>
  </defs>
  <g class="cls-1">
    <path class="cls-3" d="M286.7,138.8h.7c3.9,21.5,20.3,38.7,41.5,43.7l6.4,1.5c8.1,1.9,16.4,2.9,24.8,2.9s16.7-1,24.8-2.9l6.4-1.5c21.1-5,37.5-22.2,41.5-43.7h.7c6.6,0,12-5.4,12-12v-42.8c0-6.6-5.4-12-12-12-.7-10.3-3.1-22.1-7-30.2-1.3-2.6-3.9-4.2-6.8-4.4C408.9,15.3,386.2,0,360,0s-48.9,15.3-59.6,37.4c-2.9,0-5.5,1.8-6.8,4.4-3.9,8.1-6.3,19.9-7,30.2-6.6,0-12,5.4-12,12v42.8c.1,6.6,5.4,12,12.1,12ZM322.3,70.1c1.8,0,3.5,0,5.3.2l14.7,1.8c5.9.7,11.8,1.1,17.7,1.1s11.8-.4,17.7-1.1l14.7-1.8c1.8-.2,3.5-.3,5.3-.2,8.3.6,16.5,2,24.5,4.1l-3.6,33.1c-4.6,21.7-5.3,45.8-34.6,59.7-2.8,1.3-4.7,4-4.9,7v.9c-12.5,2.5-25.7,2.5-38.2,0v-.9c-.2-3-2.1-5.7-4.9-7-29.3-13.9-30-38-34.6-59.7l-3.6-33.1c8-2.1,16.2-3.5,24.5-4.1ZM433.3,581.2h-.7c-3.9-21.5-20.3-38.7-41.5-43.7l-6.4-1.5c-16.1-3.8-33.5-3.8-49.6,0l-6.4,1.5h0c-21.1,5-37.5,22.2-41.5,43.7h-.7c-6.6,0-12,5.4-12,12v42.8c0,6.6,5.4,12,12,12,.7,10.3,3.1,22.1,7,30.2,1.3,2.6,3.9,4.2,6.8,4.4,10.7,22.1,33.3,37.4,59.6,37.4s48.9-15.3,59.6-37.4c2.9,0,5.5-1.8,6.8-4.4,3.9-8.1,6.3-19.9,7-30.2,6.6,0,12-5.4,12-12v-42.8c0-6.6-5.3-12-12-12ZM397.7,649.9c-1.8,0-3.5,0-5.3-.2l-14.7-1.8c-5.9-.7-11.8-1.1-17.7-1.1s-11.8.4-17.7,1.1l-14.7,1.8c-1.8.2-3.5.3-5.3.2-8.3-.6-16.5-2-24.5-4.1l3.6-33.1c4.6-21.7,5.3-45.8,34.6-59.7,2.8-1.3,4.7-4,4.9-7v-.9c12.5-2.5,25.7-2.5,38.2,0v.9c.2,3,2.1,5.7,4.9,7,29.3,13.9,30,38,34.6,59.7l3.6,33.1c-8,2.1-16.2,3.5-24.5,4.1ZM469.4,322.8h10v74.4h-10v-74.4ZM250.6,397.2h-10v-74.4h10v74.4ZM720,360l-174.3-174.3,108-108-11.3-11.3-167.8,167.6-44.2-44.2h-32.1l-1.2,3.3c-5.6,15.6-20.5,26.1-37.1,26.1s-31.5-10.5-37.1-26.1l-1.2-3.3h-32.1l-44.2,44.2L77.7,66.3l-11.4,11.4,108,108L0,360l174.3,174.3-108,108,11.3,11.3,167.8-167.6,44.2,44.2h32.1l1.2-3.3c5.6-15.6,20.5-26.1,37.1-26.1s31.5,10.5,37.1,26.1l1.2,3.3h32.1l44.2-44.2,167.7,167.7,11.3-11.3-108-108,174.4-174.4ZM348.7,360l-107.6,107.6-41.2-41.2v-132.7l41.2-41.2,107.6,107.5ZM371.3,360l107.6-107.6,41.2,41.2v132.7l-41.2,41.2-107.6-107.5ZM293.7,199.9h21.1c7.9,17.8,25.6,29.5,45.2,29.5s37.4-11.7,45.2-29.5h21.1l41.2,41.2h-215.1l41.3-41.2ZM185.7,523L22.7,360l163-163,48.4,48.4-44.2,44.2v140.9l44.2,44.2-48.4,48.3ZM426.3,520.1h-21.1c-7.9-17.8-25.6-29.5-45.2-29.5s-37.3,11.7-45.2,29.5h-21.1l-41.2-41.2h215.1l-41.3,41.2ZM530.1,430.5v-141l-44.2-44.2,48.4-48.4,163,163.1-163,163-48.3-48.4,44.1-44.1Z"/>
  </g>
</svg>