<?xml version="1.0" encoding="UTF-8"?>
<svg id="Layer_1" data-name="Layer 1" xmlns="http://www.w3.org/2000/svg" xmlns:xlink="http://www.w3.org/1999/xlink" version="1.1" viewBox="0 0 720 720">
  <defs>
    <style>
      .cls-1 {
        clip-path: url(#clippath);
      }

      .cls-2 {
        fill: none;
      }

      .cls-2, .cls-3 {
        stroke-width: 0px;
      }

      .cls-3 {
        fill: #000;
      }
    </style>
    <clipPath id="clippath">
      <rect class="cls-2" width="720" height="720"/>
    </clipPath>
  </defs>
  <g class="cls-1">
    <path class="cls-3" d="M47.4,397.4c-11.6,6.1-23.6,12.4-47.4,12.4v-10c21.3,0,31.7-5.5,42.7-11.3,11.6-6.1,23.6-12.4,47.4-12.4s23.2,2.1,31.3,5c-.4,3.5-.6,7-.6,10.5-7.8-3.2-16.9-5.4-30.6-5.4-21.4-.1-31.8,5.4-42.8,11.2ZM90.1,284.5c21.3,0,31.7,5.5,42.7,11.3,9.3,4.9,18.9,9.9,34.6,11.7,6.1-3.8,12.5-7,19.4-9.5-2.1.1-4.3.2-6.7.2-21.3,0-31.7-5.5-42.7-11.3-11.6-6.1-23.6-12.4-47.4-12.4s-35.8,6.3-47.4,12.4c-11,5.8-21.4,11.3-42.7,11.3v10c23.7,0,35.8-6.3,47.4-12.4,11.1-5.8,21.5-11.3,42.8-11.3ZM90.1,335.3c20.7,0,31.1,5.2,41.8,10.8,1.5-3,3.2-5.9,5-8.6-11.5-6-23.5-12.2-46.9-12.2s-35.8,6.3-47.4,12.4c-10.9,5.9-21.3,11.3-42.6,11.3v10c23.7,0,35.8-6.3,47.4-12.4,11-5.8,21.4-11.3,42.7-11.3ZM90.1,437c21.3,0,31.7,5.5,42.7,11.3,2.7,1.4,5.4,2.8,8.3,4.2-3.9-5.1-7.3-10.6-10.1-16.4-9.9-4.9-21.5-9.1-40.9-9.1s-35.8,6.3-47.4,12.4C31.7,445.2,21.3,450.7,0,450.7v10c23.7,0,35.8-6.3,47.4-12.4,11-5.8,21.4-11.3,42.7-11.3ZM494.9,394.1l15.5-4.1-41.4-154.9c-.2-.6.1-1.1.3-1.4.2-.3.6-.6,1.3-.6h33.2c7.2.1,13.1,6,13.1,13.2s-5.9,13.1-13.1,13.1v16c16,0,29.1-13.1,29.1-29.1s-13.1-29.1-29-29.1h-33.3c-5.5-.1-10.5,2.4-13.9,6.7s-4.5,9.8-3.2,15.2l41.4,155ZM211.4,292.5c3.1-.3,6.2-.5,9.4-.5s8.3.3,12.4.8c9.2-4.6,19.4-8.4,37-8.4s2.1,0,3.1.1l-9.9-9.9c-19.3,1.1-30.1,6.7-40.6,12.2-3.7,2.1-7.4,4-11.4,5.7ZM471,343.4l-8.5-32c-29.6,14.8-49.9,45.3-49.9,80.6s40.3,90,90,90,90-40.3,90-90-40.3-90-90-90-3.6.1-5.4.2l8.5,31.9c30.5,1.6,54.9,27,54.9,57.9s-26,58-58,58-58-26-58-58c0-20.3,10.5-38.2,26.4-48.6ZM367.6,145.9c-2.1-1.2-4.7-1.9-7.6-1.9s-5.5.7-7.6,1.9c-3-4.6-8.7-8.9-15.6-12.4l-29.8,29.9c1,.3,2.1.6,3.1.9,6.7,1.7,13.7,2.6,20.1,2.6,12.2,0,22.3-3.4,24.3-11.3.4-1.7,1.5-3.7,5.5-3.7s5.1,2,5.5,3.7c1.5,5.8,7.3,9.1,15.1,10.5l41.6-41.6c-6.8-.2-14.4.8-21.6,2.6-13.9,3.5-27.6,10.6-33,18.8ZM219.7,208.3L77.7,66.3l-11.3,11.4,142,142,11.3-11.4ZM398.5,25.3c4.2-3.5,8.7-8,11.4-12.8-12.3-8.6-28.1-12.5-49.9-12.5-31.8,0-50.7,8.2-64.6,27.4-9.1,12.6-14.8,27.4-18.2,42.4,16.3-15.1,43.7-21,68.8-26.5,21.5-4.6,41.6-9,52.5-18ZM90.1,233.7c21.3,0,31.7,5.5,42.7,11.3,11.6,6.1,23.6,12.4,47.4,12.4s35.7-6.3,47.3-12.4c1.4-.7,2.7-1.4,4.1-2.1l-7.4-7.4c-.4.2-.9.5-1.3.7-11,5.8-21.4,11.3-42.7,11.3s-31.7-5.5-42.7-11.3c-11.6-6.1-23.6-12.4-47.4-12.4s-35.8,6.3-47.4,12.4C31.7,242,21.3,247.5,0,247.5v10c23.7,0,35.8-6.3,47.4-12.4,11-6,21.4-11.4,42.7-11.4ZM274.7,139.2c.6,7.9,10,15.4,21.9,20.5l30.3-30.3c-2.5-.9-5-1.6-7.5-2.2-12-3-25-3.6-33.9-.7,12.2-20.2,41-34.4,74.5-34.4s62.3,14.2,74.5,34.4l-40.4,40.4c5.2-.3,10.6-1.1,15.8-2.5,17.4-4.4,34.5-14.3,35.4-25.1,3.6-23.9,4.6-76.7-20.8-111.8-2.1-2.9-4.4-5.6-6.8-8.1h0c-2.9,4.6-7.1,9.2-12.7,13.9-12.8,10.6-34.1,15.3-56.8,20.2-36.4,7.9-74.1,16.1-75.3,49.4-.5,14.4.5,27.3,1.8,36.3ZM646.8,261.6c5.7,8.5,10.2,17.7,13.2,27.5l9.5-3c-3.4-10.6-8.2-20.7-14.5-30l-8.2,5.5ZM625.4,405.6c-7.9,6.5-16.7,11.8-26.1,15.8l3.9,9.2c10.2-4.4,19.8-10.2,28.5-17.3l-6.3-7.7ZM616.6,214.5l-7.1,7.1,22.8,22.6,7-7.2-22.7-22.5ZM673.1,343.5c1.3-7.1,2-14.4,2-21.7s-.2-7.8-.6-11.6l-10,1c.3,3.5.5,7.1.5,10.6,0,6.7-.6,13.3-1.8,19.8l9.9,1.9ZM570.2,182.2l22.6,22.6,7.1-7.1-22.6-22.6-7.1,7.1ZM649.1,395.8c7-8.7,12.7-18.4,17-28.6l-9.2-3.8c-3.9,9.4-9.1,18.2-15.5,26.2l7.7,6.2ZM439,639.1h-16.6c-2.8,0-5-2.2-5-5s2.2-5,5-5h13.4l-3.3-10.6h-20.3c-2.8,0-5-2.2-5-5s2.2-5,5-5h17.2l-3.3-10.6h-24.1c-2.8,0-5-2.2-5-5s2.2-5,5-5h20.9l-3.3-10.6h-27.9c-2.8,0-5-2.2-5-5s2.2-5,5-5h24.8l-4.7-16.1c-58.6,8.1-41-25.6-58.3-38.5-21.4,7.3-39.6,21.2-49.7,30.2l1.3,2.2c13.5,23.9,23.4,29.9,39.8,39.8,8.6,5.2,18.4,11.1,30.8,20.7,9.7,7.5,18.4,23.2,27.7,39.9,8.6,15.5,17.5,31.6,26.5,40,7.6,7.1,11.5,9.6,13.2,10.4,8.1-5.3,15.5-4.3,26.4,4.2-2.6-9.8-10.4-22.3-16.6-32.7-6.5-10.8-10.1-17.5-13.9-28.3ZM307.5,416.1c-10.5,38.1-45.4,66-86.8,66s-90-40.3-90-90,40.3-90,90-90,28,3.4,40.1,9.4l34.1-48-13.3-43.8-2.3.6c-3,1-6.1,1.5-9.1,1.5-9.5,0-18.7-4.7-24.1-12.9l-3.4-5c-1.4-2-1.5-4.6-.3-6.8,1.1-2.1,3.4-3.5,5.8-3.5h77.1c4.1,0,7.5,3.4,7.5,7.5s-2.1,6.1-5.1,7.1l-30.4,7.6,10.6,34.8h138.5l8.8,32.9-102.2,117.8c-2.7,3.1-6.5,4.8-10.6,4.8h-121.6c-7.7,0-14-6.3-14-14s.9-5.6,2.4-7.9h0l32.8-46.1c-6.6-2.6-13.7-4-21.2-4-32,0-58,26-58,58s26,58,58,58,43.7-14,52.8-34h33.9ZM310.8,260.6l33,108.5,94.1-108.5h-127.1ZM251,342.6l-25.2,35.5h104l-31.1-102.5-29.1,40.9c18.3,11.8,32,30.1,37.9,51.6h-34c-4.8-10.6-12.7-19.4-22.5-25.5ZM448.3,704.5c-2.2,1.5-4,2.4-7.3,1.4-4.1-1.3-10-5.6-18-13.1-10.1-9.5-19.4-26.3-28.4-42.5-8.7-15.8-17-30.6-25.1-36.9-12-9.2-21.5-15-29.9-20.1-16.6-10-28.5-17.3-43.3-43.3-.2-.3-.1,0,0,0-7.3,5-17,11.8,8.3,37.8,0,0,16,20,46.1,41.5,8.7,6.2,15.8,14.3,21.2,23.5,20.7,34.8,54.4,55.1,54.4,55.1,12.4,9,21.4,11.8,27.8,11.8,10.7,0,14.2-7.6,14.2-7.6h-.1c-13.3-12-16.5-9.9-19.9-7.6ZM502.6,492.1c-8.6,0-17-1.1-25-3.2l164.7,164.7,11.3-11.3-150.2-150.2h-.8ZM66.4,642.3l11.3,11.3,163.7-163.7c-6.7,1.4-13.6,2.2-20.7,2.2s-2.6,0-3.9-.1c-.1,0-.1.1-.2.1-9.8,5-17.5,9.4-36.5,9.4s-31.7-5.5-42.7-11.3c-11.6-6.1-23.6-12.4-47.4-12.4s-35.8,6.3-47.4,12.4c-11,5.8-21.4,11.3-42.7,11.3v10c23.7,0,35.8-6.3,47.4-12.4,11-5.8,21.4-11.3,42.7-11.3s31.7,5.5,42.7,11.3c11.6,6.1,23.6,12.4,47.4,12.4s13.3-.6,18.6-1.6l-40,40c-8.5-2.1-14.8-5.4-21.3-8.9-11.6-6.1-23.6-12.4-47.4-12.4s-35.8,6.3-47.4,12.4c-11,5.8-21.4,11.3-42.7,11.3v10c23.7,0,35.8-6.3,47.4-12.4,11-5.8,21.4-11.3,42.7-11.3s31.7,5.5,42.7,11.3c5.5,2.9,11.1,5.8,17.9,8.1l-84.2,84.3ZM666.4,200.9l-68-68h0c0-.1,55.2-55.3,55.2-55.3l-11.3-11.3-140.8,140.8h2.3c5.9,0,11.5,1.4,16.6,3.8l7.5-7.5,71.3,71.3.2.2c13.3,12,20.9,29.1,20.9,47s-7.9,35-20.5,46.6c.9,3.7,1.6,7.5,2.1,11.3,17.3-13.4,28.4-34.4,28.4-57.9s-8.8-40.4-24.1-54.3l-71.3-71.3,56.3-56.3,68.1,68.1.2.2c32,29,50.4,70.4,50.4,113.6,0,83.9-67.8,152.2-151.5,153.1-5.9,4-12.3,7.4-19,10h17.3c90,0,163.2-73.2,163.2-163.2s-19.5-90-53.6-120.9Z"/>
  </g>
</svg>