<?xml version="1.0" encoding="UTF-8"?>
<svg id="Layer_1" data-name="Layer 1" xmlns="http://www.w3.org/2000/svg" xmlns:xlink="http://www.w3.org/1999/xlink" version="1.1" viewBox="0 0 720 720">
  <defs>
    <style>
      .cls-1 {
        clip-path: url(#clippath);
      }

      .cls-2 {
        fill: none;
      }

      .cls-2, .cls-3 {
        stroke-width: 0px;
      }

      .cls-3 {
        fill: #000;
      }
    </style>
    <clipPath id="clippath">
      <rect class="cls-2" width="720" height="720"/>
    </clipPath>
  </defs>
  <g class="cls-1">
    <g>
      <path class="cls-3" d="M720,360l-127-127-7.1,7.1,32.6,32.6-167.3,167.2-39.6-39.6L691.8,120l-91.8-91.8-280.2,280.2L77.7,66.3l-11.4,11.4,108,108L0,360l127,127,7.1-7.1-32.6-32.6,167.3-167.3,39.6,39.6L28.2,599.9l91.8,91.8,280.2-280.2,242.1,242.1,11.3-11.3-108-108,174.4-174.3ZM94.5,440.3L14.1,360l167.3-167.3,80.3,80.3-167.2,167.3ZM402.4,395.3l-28.2-28.2,28.2-28.2,28.2,28.2-28.2,28.2ZM127.1,543.5l28.2-28.2,28.2,28.2-28.2,28.2-28.2-28.2ZM148.3,578.8l-28.3,28.2-28.2-28.2,28.2-28.2,28.3,28.2ZM162.4,508.2l28.2-28.2,28.2,28.2-28.2,28.2-28.2-28.2ZM197.7,472.9l28.2-28.2,28.2,28.2-28.2,28.2-28.2-28.2ZM233,437.6l28.2-28.2,28.2,28.2-28.2,28.2-28.2-28.2ZM268.3,402.3l28.2-28.2,28.2,28.2-28.2,28.2-28.2-28.2ZM303.6,367.1l28.2-28.2,28.2,28.2-28.2,28.2-28.2-28.2ZM338.8,331.8l28.2-28.2,28.2,28.2-28.1,28.2-28.3-28.2ZM571.8,155.3l-28.2,28.2-28.2-28.2,28.2-28.2,28.2,28.2ZM550.6,120l28.2-28.2,28.2,28.2-28.2,28.2-28.2-28.2ZM536.5,190.6l-28.2,28.2-28.3-28.2,28.2-28.2,28.3,28.2ZM501.2,225.9l-28.2,28.2-28.2-28.2,28.2-28.2,28.2,28.2ZM465.9,261.2l-28.2,28.2-28.2-28.2,28.2-28.2,28.2,28.2ZM430.6,296.5l-28.2,28.2-28.2-28.2,28.2-28.2,28.2,28.2ZM437.7,360l-28.2-28.2,28.2-28.2,28.2,28.2-28.2,28.2ZM472.9,324.7l-28.2-28.2,28.2-28.2,28.2,28.2-28.2,28.2ZM508.2,289.4l-28.2-28.2,28.2-28.2,28.2,28.2-28.2,28.2ZM543.5,254.1l-28.2-28.2,28.2-28.2,28.2,28.2-28.2,28.2ZM578.8,218.8l-28.2-28.2,28.2-28.2,28.2,28.2-28.2,28.2ZM614.1,183.5l-28.2-28.2,28.2-28.2,28.2,28.2-28.2,28.2ZM677.6,120l-28.2,28.2-28.2-28.2,28.2-28.2,28.2,28.2ZM642.3,84.7l-28.2,28.3-28.2-28.2,28.2-28.2,28.2,28.1ZM42.4,599.9L600,42.4l7.1,7.1L49.5,607l-7.1-7.1ZM56.5,614.1l28.2-28.2,28.2,28.2-28.2,28.2-28.2-28.2ZM120,677.6l-28.2-28.2,28.2-28.2,28.2,28.2-28.2,28.2ZM155.3,642.3l-28.2-28.2,28.2-28.2,28.2,28.2-28.2,28.2ZM190.6,607l-28.2-28.2,28.2-28.2,28.2,28.2-28.2,28.2ZM225.9,571.7l-28.2-28.2,28.2-28.2,28.2,28.2-28.2,28.2ZM261.2,536.4l-28.2-28.2,28.2-28.2,28.2,28.2-28.2,28.2ZM296.5,501.1l-28.2-28.2,28.2-28.2,28.2,28.2-28.2,28.2ZM331.8,465.9l-28.2-28.2,28.2-28.2,28.2,28.2-28.2,28.2ZM367.1,430.6l-28.2-28.2,28.2-28.2,28.2,28.2-28.2,28.2ZM458.3,446.9l167.3-167.3,80.3,80.3-167.3,167.4-80.3-80.4Z"/>
      <path class="cls-3" d="M319.8,216.1c59.7,0,108.1-48.4,108.1-108.1S379.5,0,319.8,0s-108.1,48.4-108.1,108.1,48.4,108,108.1,108ZM411.2,72.7c4.3,11,6.6,22.9,6.6,35.3,0,52.5-41.6,95.6-93.5,97.9-10.7-4.2-34-16.5-36.6-43.8-1.4-15.4,3.8-29.6,8.8-39.3,42.8,7.3,76.8-13.5,89.6-32.2,9.6-13.9,19.3-17.3,25.1-17.9ZM319.8,10c25.4,0,48.6,9.7,66.1,25.7-10.9-.4-27.2,4-45.3,25.4-32.7,38.6-73.8,30.5-73.8,30.5-6.4-32.3-14.1-44.8-19.4-49.6,17.9-19.6,43.7-32,72.4-32ZM223.6,89c13.9,5.8,31,37.6,34.7,44.7-6.5,11-11.4,26.8-5.2,46.1-19.3-17.9-31.4-43.5-31.4-71.8,0-6.5.7-12.8,1.9-19Z"/>
      <path class="cls-3" d="M400.2,503.9c-59.7,0-108.1,48.4-108.1,108.1s48.4,108.1,108.1,108.1,108.1-48.4,108.1-108.1c0-59.7-48.4-108.1-108.1-108.1ZM308.8,647.3c-4.3-11-6.6-22.9-6.6-35.3,0-52.5,41.6-95.6,93.5-97.9,10.7,4.2,34,16.5,36.6,43.8,1.4,15.4-3.8,29.6-8.8,39.3-42.8-7.3-76.8,13.5-89.6,32.2-9.6,13.9-19.3,17.3-25.1,17.9ZM400.2,710c-25.4,0-48.6-9.7-66.1-25.7,10.9.4,27.2-4,45.3-25.4,32.7-38.6,73.8-30.5,73.8-30.5,6.4,32.3,14.1,44.8,19.4,49.6-17.9,19.6-43.7,32-72.4,32ZM496.4,631c-13.9-5.8-31-37.6-34.7-44.7,6.5-11,11.4-26.8,5.2-46.1,19.3,17.9,31.4,43.5,31.4,71.8s-.7,12.8-1.9,19Z"/>
    </g>
  </g>
</svg>